<svg width="86" height="25" viewBox="0 0 86 25" fill="none" xmlns="http://www.w3.org/2000/svg">
<path d="M0 8C0 3.58172 3.58172 0 8 0H86V25H0V8Z" fill="#EC7100"/>
<path d="M18.9 16V8.2H20.02V11.33H23.98V8.2H25.1V16H23.98V12.27H20.02V16H18.9ZM29.1439 16.15C28.2639 16.15 27.5939 15.8633 27.1339 15.29C26.6806 14.71 26.4539 13.9467 26.4539 13C26.4539 12.3733 26.5539 11.8267 26.7539 11.36C26.9606 10.8867 27.2606 10.5167 27.6539 10.25C28.0539 9.98333 28.5472 9.85 29.1339 9.85C29.9539 9.85 30.5772 10.1167 31.0039 10.65C31.4372 11.1833 31.6539 11.9567 31.6539 12.97V13.28H27.5039C27.5372 13.8667 27.6872 14.35 27.9539 14.73C28.2272 15.1033 28.6272 15.29 29.1539 15.29C29.5339 15.29 29.8406 15.1833 30.0739 14.97C30.3072 14.7567 30.4739 14.46 30.5739 14.08H31.5939C31.5072 14.4867 31.3639 14.8467 31.1639 15.16C30.9639 15.4667 30.6972 15.71 30.3639 15.89C30.0306 16.0633 29.6239 16.15 29.1439 16.15ZM27.5139 12.5H30.6039C30.5839 11.92 30.4439 11.4767 30.1839 11.17C29.9239 10.8633 29.5706 10.71 29.1239 10.71C28.6506 10.71 28.2772 10.8667 28.0039 11.18C27.7372 11.4933 27.5739 11.9333 27.5139 12.5ZM32.9894 16V10H33.9494V11.02H34.1894C34.2294 10.8533 34.2994 10.6867 34.3994 10.52C34.4994 10.3533 34.6594 10.2167 34.8794 10.11C35.0994 9.99667 35.4094 9.94 35.8094 9.94H36.0094V10.96H35.7094C35.1094 10.96 34.686 11.1167 34.4394 11.43C34.1927 11.7367 34.0694 12.22 34.0694 12.88V16H32.9894ZM37.1647 16V10H38.2447V16H37.1647ZM37.7047 9.16C37.498 9.16 37.3347 9.1 37.2147 8.98C37.1014 8.86 37.0447 8.7 37.0447 8.5C37.0447 8.3 37.1014 8.14 37.2147 8.02C37.3347 7.9 37.498 7.84 37.7047 7.84C37.918 7.84 38.0814 7.9 38.1947 8.02C38.308 8.14 38.3647 8.3 38.3647 8.5C38.3647 8.7 38.308 8.86 38.1947 8.98C38.0814 9.1 37.918 9.16 37.7047 9.16ZM40.7155 16C40.5688 15.82 40.4488 15.6033 40.3555 15.35C40.2688 15.0967 40.2255 14.7167 40.2255 14.21V10.84H39.4055V10H40.2455V8.5H41.2855V10H42.3055V10.84H41.3055V14.04C41.3055 14.5867 41.3621 14.9967 41.4755 15.27C41.5955 15.5367 41.7388 15.76 41.9055 15.94V16H40.7155ZM45.4794 16.15C44.966 16.15 44.5294 16.02 44.1694 15.76C43.8094 15.5 43.5327 15.1367 43.3394 14.67C43.1527 14.1967 43.0594 13.64 43.0594 13C43.0594 12.36 43.1527 11.8067 43.3394 11.34C43.5327 10.8667 43.8094 10.5 44.1694 10.24C44.536 9.98 44.9794 9.85 45.4994 9.85C45.9527 9.85 46.3127 9.94667 46.5794 10.14C46.8527 10.3267 47.0427 10.54 47.1494 10.78H47.3894V10H48.3494V16H47.3894V15.22H47.1494C47.0427 15.46 46.8527 15.6767 46.5794 15.87C46.306 16.0567 45.9394 16.15 45.4794 16.15ZM45.6694 15.25C46.1694 15.25 46.566 15.0433 46.8594 14.63C47.1527 14.2167 47.2994 13.6733 47.2994 13C47.2994 12.3267 47.1527 11.7833 46.8594 11.37C46.566 10.9567 46.1694 10.75 45.6694 10.75C45.1827 10.75 44.8094 10.9467 44.5494 11.34C44.2894 11.7333 44.1594 12.2867 44.1594 13C44.1594 13.7133 44.2894 14.2667 44.5494 14.66C44.8094 15.0533 45.1827 15.25 45.6694 15.25ZM52.327 18.14C51.9004 18.14 51.5404 18.0867 51.247 17.98C50.9537 17.8733 50.7137 17.7333 50.527 17.56C50.3404 17.3933 50.2004 17.21 50.107 17.01C50.0137 16.81 49.9537 16.6133 49.927 16.42H51.007C51.047 16.6467 51.1737 16.85 51.387 17.03C51.6004 17.21 51.9304 17.3 52.377 17.3C52.857 17.3 53.227 17.1667 53.487 16.9C53.7537 16.6333 53.887 16.2033 53.887 15.61V14.94H53.647C53.5404 15.2067 53.357 15.43 53.097 15.61C52.8437 15.7833 52.497 15.87 52.057 15.87C51.317 15.87 50.7304 15.6 50.297 15.06C49.8704 14.52 49.657 13.78 49.657 12.84C49.657 12.2267 49.7504 11.6967 49.937 11.25C50.1304 10.8033 50.4037 10.46 50.757 10.22C51.117 9.97333 51.5437 9.85 52.037 9.85C52.497 9.85 52.8504 9.94333 53.097 10.13C53.3504 10.3167 53.5337 10.5333 53.647 10.78H53.887V10H54.847V15.67C54.847 16.47 54.6304 17.08 54.197 17.5C53.7637 17.9267 53.1404 18.14 52.327 18.14ZM52.187 14.97C52.7004 14.97 53.097 14.7733 53.377 14.38C53.657 13.98 53.797 13.4733 53.797 12.86C53.797 12.2333 53.6537 11.7267 53.367 11.34C53.087 10.9467 52.697 10.75 52.197 10.75C51.7304 10.75 51.3704 10.9333 51.117 11.3C50.8637 11.6667 50.737 12.1867 50.737 12.86C50.737 13.5333 50.8604 14.0533 51.107 14.42C51.3604 14.7867 51.7204 14.97 52.187 14.97ZM58.8509 16.15C57.9709 16.15 57.3009 15.8633 56.8409 15.29C56.3876 14.71 56.1609 13.9467 56.1609 13C56.1609 12.3733 56.2609 11.8267 56.4609 11.36C56.6676 10.8867 56.9676 10.5167 57.3609 10.25C57.7609 9.98333 58.2543 9.85 58.8409 9.85C59.6609 9.85 60.2843 10.1167 60.7109 10.65C61.1443 11.1833 61.3609 11.9567 61.3609 12.97V13.28H57.2109C57.2443 13.8667 57.3943 14.35 57.6609 14.73C57.9343 15.1033 58.3343 15.29 58.8609 15.29C59.2409 15.29 59.5476 15.1833 59.7809 14.97C60.0143 14.7567 60.1809 14.46 60.2809 14.08H61.3009C61.2143 14.4867 61.0709 14.8467 60.8709 15.16C60.6709 15.4667 60.4043 15.71 60.0709 15.89C59.7376 16.0633 59.3309 16.15 58.8509 16.15ZM57.2209 12.5H60.3109C60.2909 11.92 60.1509 11.4767 59.8909 11.17C59.6309 10.8633 59.2776 10.71 58.8309 10.71C58.3576 10.71 57.9843 10.8667 57.7109 11.18C57.4443 11.4933 57.2809 11.9333 57.2209 12.5Z" fill="white"/>
</svg>
