<svg width="131" height="272" viewBox="0 0 131 272" fill="none" xmlns="http://www.w3.org/2000/svg">
<path d="M29.3528 5.34501C24.4642 8.63543 19.9621 14.3763 22.7056 30.9133C25.449 47.4503 26.153 51.3892 26.153 51.3892L57.5722 48.8103C57.5722 48.8103 59.4786 34.3038 57.445 20.5404C54.6705 2.75855 43.6689 -4.30172 29.3528 5.34501Z" fill="#111F3C"/>
<path d="M57.9571 97.1267C57.9571 97.1267 66.861 153.957 68.9891 177.263C71.7753 207.65 85.5587 252.394 85.5587 252.394L79.4641 253.778C79.4641 253.778 59.2864 215.491 56.1775 181.509C40.2921 146.388 40.207 103.722 40.207 103.722L57.9571 97.1267Z" fill="#EEC1BB"/>
<path d="M96.4381 266.433C95.4746 265.954 94.431 265.657 93.3597 265.557C93.3597 265.557 89.7074 263.253 86.2841 254.648L82.1351 254.523C81.4353 254.512 80.7488 254.715 80.168 255.105C79.5871 255.496 79.1398 256.055 78.8862 256.707C78.8125 256.891 78.7671 257.084 78.7513 257.281C78.7679 258.267 78.8462 259.25 78.9858 260.226C79.4929 263.552 80.2016 266.844 81.1078 270.084L81.8179 269.92L80.732 263.707C80.3648 261.59 82.5152 263.682 83.4689 265.836C84.4226 267.99 85.8967 270.101 90.4763 269.26C95.877 268.15 98.0433 267.441 96.4381 266.433Z" fill="#293550"/>
<path d="M78.7271 256.783C78.0047 254.753 77.1149 251.132 77.1149 251.132L86.0273 250.166C86.0273 250.166 85.8958 254.531 87.4536 257.437C82.8159 257.278 78.7271 256.783 78.7271 256.783Z" fill="#293550"/>
<path d="M46.9758 95.8926C46.9758 95.8926 43.9219 153.342 41.1943 176.57C37.6264 206.883 41.8623 253.514 41.8623 253.514L35.6109 253.6C35.6109 253.6 23.7905 211.97 27.7508 178.065C19.4732 140.421 28.1852 98.666 28.1852 98.666L46.9758 95.8926Z" fill="#EEC1BB"/>
<path d="M51.1724 266.971C50.2652 266.387 49.2584 265.975 48.2023 265.755C48.2023 265.755 44.8256 263.077 42.3426 254.148L38.2469 253.555C37.5473 253.468 36.8378 253.599 36.2159 253.931C35.5939 254.263 35.0898 254.779 34.7728 255.409C34.6798 255.582 34.6146 255.768 34.5799 255.961C34.4861 256.96 34.4559 257.963 34.4893 258.965C34.6405 262.311 34.9946 265.645 35.5498 268.948L36.2671 268.872L35.8595 262.572C35.7281 260.433 37.6271 262.743 38.3528 264.988C39.0785 267.233 40.3405 269.553 45.0161 269.106C50.4569 268.614 52.695 268.123 51.1724 266.971Z" fill="#293550"/>
<path d="M34.6443 255.452C34.1491 253.361 33.6533 249.663 33.6533 249.663L42.6149 249.669C42.6149 249.669 42.0145 253.99 43.2444 257.053C38.6615 256.377 34.6443 255.452 34.6443 255.452Z" fill="#293550"/>
<path d="M60.5017 87.7594L69.7113 168.565C69.7113 168.565 31.6455 173.294 16.5817 169.402C16.5817 169.402 14.2537 122.839 31.1049 89.5275L60.5017 87.7594Z" fill="#111F3C"/>
<path d="M96.3811 60.3722L106.81 50.6769C106.81 50.6769 107.234 48.006 108.244 47.2921C109.255 46.5782 116.259 44.2624 117.133 44.847C118.007 45.4316 118.982 51.0829 117.757 52.0744C116.533 53.0659 110.181 54.1869 109.539 54.0598L98.1573 66.7528L96.3811 60.3722Z" fill="#EEC1BB"/>
<path d="M60.6857 41.0503C64.9801 43.5009 79.827 65.6329 82.0748 66.7682C84.3227 67.9035 102.196 54.2896 102.196 54.2896L104.98 59.398C104.98 59.398 90.0631 79.242 82.0001 78.0196C73.9371 76.7971 58.9631 59.2058 58.9631 59.2058L60.6857 41.0503Z" fill="#90CAF9"/>
<path opacity="0.1" d="M60.6857 41.0503C64.9801 43.5009 79.827 65.6329 82.0748 66.7682C84.3227 67.9035 102.196 54.2896 102.196 54.2896L104.98 59.398C104.98 59.398 90.0631 79.242 82.0001 78.0196C73.9371 76.7971 58.9631 59.2058 58.9631 59.2058L60.6857 41.0503Z" fill="white"/>
<path d="M101.221 54.7981L102.469 53.6898L105.487 59.1676L104.276 61.3348L101.221 54.7981Z" fill="#90CAF9"/>
<path opacity="0.2" d="M64.9975 65.6668C61.4811 62.1034 58.9646 59.1578 58.9646 59.1578L59.3684 54.8605L60.8251 50.7223C62.6441 52.7114 63.9696 55.1006 64.6944 57.6967C65.4193 60.2928 65.5231 63.0231 64.9975 65.6668Z" fill="black"/>
<path d="M60.7713 86.9468C62.6434 65.4559 62.4529 53.5795 62.0736 47.6426C61.6474 41.3125 60.6857 41.0484 60.6857 41.0484C60.6857 41.0484 53.856 40.1765 47.9148 40.0464C43.315 40.0636 38.7222 40.4096 34.1717 41.0817C29.8419 41.6667 25.5598 42.5621 21.3584 43.7611C21.9942 45.7391 22.5615 47.715 23.0967 49.4549C23.7992 51.8169 24.4288 54.0004 25.0038 56.0452C26.0642 59.8577 26.8855 63.1537 27.5214 66.1014C29.17 73.5252 30.0348 81.1015 30.1015 88.7059C30.1015 88.7059 21.9837 108.148 20.0808 122.537L44.9523 125.98L48.8123 111.65L51.7873 126.676L65.8789 122.203L60.7713 86.9468Z" fill="#90CAF9"/>
<path opacity="0.1" d="M60.7713 86.9468C62.6434 65.4559 62.4529 53.5795 62.0736 47.6426C61.6474 41.3125 60.6857 41.0484 60.6857 41.0484C60.6857 41.0484 53.856 40.1765 47.9148 40.0464C43.315 40.0636 38.7222 40.4096 34.1717 41.0817C29.8419 41.6667 25.5598 42.5621 21.3584 43.7611C21.9942 45.7391 22.5615 47.715 23.0967 49.4549C23.7992 51.8169 24.4288 54.0004 25.0038 56.0452C26.0642 59.8577 26.8855 63.1537 27.5214 66.1014C29.17 73.5252 30.0348 81.1015 30.1015 88.7059C30.1015 88.7059 21.9837 108.148 20.0808 122.537L44.9523 125.98L48.8123 111.65L51.7873 126.676L65.8789 122.203L60.7713 86.9468Z" fill="white"/>
<path opacity="0.2" d="M28.5758 71.4119C28.2926 69.7579 27.954 67.9945 27.5312 66.1013C27.2638 64.8983 26.9689 63.6358 26.6665 62.2947C27.7456 58.9874 28.6454 61.6296 28.6454 61.6296C29.155 64.8724 29.1315 68.1766 28.5758 71.4119Z" fill="black"/>
<path d="M47.5326 41.3484C47.2358 41.1868 46.9294 41.0434 46.6151 40.9192C45.9274 40.3402 45.1067 38.9736 45.244 35.7163C45.3148 34.4253 45.4746 33.1408 45.7223 31.8718L36.7023 29.9055C36.7023 29.9055 39.6104 36.1048 36.9 40.5676C35.9978 40.9322 35.4517 41.5034 35.528 42.2206C36.0454 47.4761 47.1653 52.8847 47.1653 52.8847C47.1653 52.8847 52.9121 44.5174 47.5326 41.3484Z" fill="#EEC1BB"/>
<path opacity="0.2" d="M45.7227 31.8718C45.4799 33.1315 45.3236 34.4063 45.2551 35.6873C39.1294 35.5026 36.7027 29.9055 36.7027 29.9055L45.7227 31.8718Z" fill="black"/>
<path d="M41.4663 6.38549C49.3663 6.19267 52.0125 10.3566 52.7863 18.4798C53.7632 28.6365 51.6827 35.9194 41.7507 33.9942C28.2655 31.3448 28.3422 6.70486 41.4663 6.38549Z" fill="#EEC1BB"/>
<path d="M47.6718 18.2179C48.3332 19.3816 49.1327 20.4613 50.0528 21.4336C49.8265 21.7619 49.514 22.0213 49.1496 22.1831C48.7852 22.345 48.3832 22.403 47.9879 22.3508L47.6718 18.2179Z" fill="#D4827D"/>
<path d="M42.8214 17.6434C42.8019 18.2892 42.5307 18.8393 42.0992 18.8557C41.6678 18.8721 41.2911 18.371 41.2519 17.7234C41.2126 17.0758 41.5523 16.5278 41.9838 16.5114C42.4152 16.495 42.7919 16.9961 42.8214 17.6434Z" fill="#111F3C"/>
<path d="M41.8065 16.5421L43.1864 15.9275C43.1864 15.9275 42.5425 17.1422 41.8065 16.5421Z" fill="#111F3C"/>
<path d="M50.8781 17.1216C50.9076 17.7689 50.5877 18.3078 50.156 18.3339C49.7242 18.3601 49.3381 17.849 49.3089 17.1919C49.2798 16.5348 49.6091 16.006 50.0409 15.9799C50.4726 15.9537 50.8487 16.4743 50.8781 17.1216Z" fill="#111F3C"/>
<path d="M49.8632 16.0194L51.2434 15.395C51.2434 15.395 50.5992 16.6195 49.8632 16.0194Z" fill="#111F3C"/>
<path d="M42.6036 12.1894C41.9786 12.1283 41.3479 12.2119 40.7604 12.4337C40.1728 12.6554 39.6442 13.0094 39.2154 13.4683" stroke="#111F3C" stroke-width="0.686238" stroke-linecap="round" stroke-linejoin="round"/>
<path d="M48.2889 11.7153C48.825 11.5639 49.3885 11.5361 49.937 11.6341C50.4854 11.732 51.0044 11.9532 51.455 12.2809" stroke="#111F3C" stroke-width="0.686238" stroke-linecap="round" stroke-linejoin="round"/>
<path d="M33.1544 19.9195C33.1544 19.9195 36.6927 13.3367 36.0107 8.34065C36.0107 8.34065 51.5039 1.55992 52.6712 17.4226C52.6712 17.4226 53.8518 3.27613 40.2654 3.33671C26.6789 3.3973 27.2271 23.2276 34.3799 28.9769C34.3811 28.9378 30.9735 24.0359 33.1544 19.9195Z" fill="#111F3C"/>
<path d="M34.4863 21.5515C34.3828 20.6397 33.9219 19.8062 33.2047 19.2338C32.4876 18.6613 31.5726 18.3967 30.6606 18.4979C28.2218 18.8259 27.1779 23.8875 33.2969 24.9436C34.1746 25.068 34.661 24.2012 34.4863 21.5515Z" fill="#EEC1BB"/>
<path d="M41.7779 23.9831C42.3571 24.5901 43.0508 25.0764 43.8189 25.4139C44.5871 25.7514 45.4144 25.9335 46.2533 25.9495" stroke="#111F3C" stroke-width="0.686238" stroke-linecap="round" stroke-linejoin="round"/>
<path d="M36.0108 8.33957C36.0108 8.33957 53.1905 4.42063 54.1375 20.4432" stroke="#111F3C" stroke-width="0.686238" stroke-linecap="round" stroke-linejoin="round"/>
<path d="M50.1163 45.3163C50.1163 45.3163 51.0272 58.3113 48.5386 70.0383C48.5386 70.0383 44.0582 51.6664 37.1798 45.2593L45.2666 46.6686L50.1163 45.3163Z" fill="#90CAF9"/>
<path opacity="0.5" d="M50.1163 45.3163C50.1163 45.3163 51.0272 58.3113 48.5386 70.0383C48.5386 70.0383 44.0582 51.6664 37.1798 45.2593L45.2666 46.6686L50.1163 45.3163Z" fill="white"/>
<path d="M37.2464 39.1604L45.3116 45.5053L45.5069 39.0274C45.5069 39.0274 52.0979 41.6453 51.4061 48.9995L46.0119 46.3198L45.9361 48.8346L44.7273 46.3692L40.2533 51.1804C40.2533 51.1804 35.1455 44.8463 34.6242 42.9697C34.1029 41.0931 37.2464 39.1604 37.2464 39.1604Z" fill="#90CAF9"/>
<path opacity="0.7" d="M37.2464 39.1604L45.3116 45.5053L45.5069 39.0274C45.5069 39.0274 52.0979 41.6453 51.4061 48.9995L46.0119 46.3198L45.9361 48.8346L44.7273 46.3692L40.2533 51.1804C40.2533 51.1804 35.1455 44.8463 34.6242 42.9697C34.1029 41.0931 37.2464 39.1604 37.2464 39.1604Z" fill="white"/>
<path d="M26.9121 96.0637L35.5753 60.1547C35.6653 59.7789 35.8818 59.4455 36.1885 59.2104C36.4952 58.9753 36.8734 58.8529 37.2596 58.8637L60.5585 59.566C60.73 59.5713 60.8982 59.6142 61.0514 59.6916C61.2045 59.7689 61.3388 59.8789 61.4449 60.0137C61.551 60.1485 61.6263 60.3049 61.6654 60.472C61.7046 60.639 61.7067 60.8126 61.6716 60.9805L54.2935 96.174C54.2165 96.5536 54.0103 96.8946 53.71 97.1392C53.4098 97.3837 53.034 97.5166 52.6468 97.5152L27.995 97.5067C27.8231 97.4978 27.6553 97.4513 27.5034 97.3704C27.3515 97.2895 27.2192 97.1762 27.1159 97.0386C27.0126 96.9009 26.9408 96.7423 26.9056 96.5738C26.8704 96.4053 26.8726 96.2312 26.9121 96.0637Z" fill="#111F3C"/>
<path opacity="0.1" d="M26.9121 96.0637L35.5753 60.1547C35.6653 59.7789 35.8818 59.4455 36.1885 59.2104C36.4952 58.9753 36.8734 58.8529 37.2596 58.8637L60.5585 59.566C60.73 59.5713 60.8982 59.6142 61.0514 59.6916C61.2045 59.7689 61.3388 59.8789 61.4449 60.0137C61.551 60.1485 61.6263 60.3049 61.6654 60.472C61.7046 60.639 61.7067 60.8126 61.6716 60.9805L54.2935 96.174C54.2165 96.5536 54.0103 96.8946 53.71 97.1392C53.4098 97.3837 53.034 97.5166 52.6468 97.5152L27.995 97.5067C27.8231 97.4978 27.6553 97.4513 27.5034 97.3704C27.3515 97.2895 27.2192 97.1762 27.1159 97.0386C27.0126 96.9009 26.9408 96.7423 26.9056 96.5738C26.8704 96.4053 26.8726 96.2312 26.9121 96.0637Z" fill="white"/>
<path d="M17.1958 84.0549L29.4704 76.8245C29.4704 76.8245 30.4666 74.3179 31.5978 73.8329C32.729 73.3479 40.0776 72.5998 40.7698 73.3552C41.462 74.1106 41.2308 79.8333 39.8185 80.5449C38.4063 81.2565 31.9702 80.9743 31.3709 80.7114L17.5654 90.6379L17.1958 84.0549Z" fill="#EEC1BB"/>
<path d="M21.3585 43.7631C21.3585 43.7631 28.8422 55.4284 27.4415 65.1804L16.4797 82.1466L23.6037 78.7766L26.6034 84.8611C26.6034 84.8611 18.1556 97.055 7.96949 93.8096C-2.21664 90.5643 21.3585 43.7631 21.3585 43.7631Z" fill="#90CAF9"/>
<path opacity="0.1" d="M21.3585 43.7631C21.3585 43.7631 28.8422 55.4284 27.4415 65.1804L16.4797 82.1466L23.6037 78.7766L26.6034 84.8611C26.6034 84.8611 18.1556 97.055 7.96949 93.8096C-2.21664 90.5643 21.3585 43.7631 21.3585 43.7631Z" fill="white"/>
<path d="M22.8798 78.4238L26.6483 85.9713L27.6126 83.875L24.6143 77.7415L22.8798 78.4238Z" fill="#90CAF9"/>
<path d="M38.0522 58.888C38.972 58.9157 38.2464 82.9876 38.2464 82.9876L59.3032 83.0151C59.3032 83.0151 62.2848 62.733 60.0111 59.5303L38.0522 58.888Z" fill="white"/>
<path opacity="0.1" d="M38.0522 58.888C38.972 58.9157 38.2464 82.9876 38.2464 82.9876L59.3032 83.0151C59.3032 83.0151 62.2848 62.733 60.0111 59.5303L38.0522 58.888Z" fill="black"/>
<path d="M125.521 42.4343L105.375 50.2011C105.266 50.2447 105.167 50.3092 105.083 50.3911C104.999 50.4731 104.933 50.5707 104.887 50.6785C104.841 50.7863 104.816 50.9021 104.815 51.0193C104.814 51.1365 104.836 51.2528 104.88 51.3615C104.966 51.5756 105.133 51.7469 105.345 51.8377C105.557 51.9286 105.797 51.9316 106.011 51.8461L126.288 43.9657L126.477 43.8735L128.858 42.2117L125.787 42.3836C125.696 42.3863 125.606 42.4035 125.521 42.4343Z" fill="#111F3C"/>
</svg>
