<svg class="svgIcon" viewBox="0 0 576 512" fill="white" height="1em" xmlns="http://www.w3.org/2000/svg">
    <path d="M549.655 148.28c-6.281-23.64-24.041-42.396-47.655-48.685C462.923 85 288 85 288 85S113.077 85 74 99.595c-23.614 6.289-41.374 25.045-47.655 48.685-12.614 47.328-12.614 147.717-12.614 147.717s0 100.39 12.614 147.718c6.281 23.64 24.041 42.396 47.655 48.684C113.077 427 288 427 288 427s174.923 0 214-14.595c23.614-6.289 41.374-25.045 47.655-48.685 12.614-47.328 12.614-147.718 12.614-147.718s0-100.389-12.614-147.717zM240 336V176l144 80-144 80z"></path>
</svg>